<mxfile host="65bd71144e">
    <diagram id="i8R5P9hTbKSK1d7VfHOR" name="PÃ¡gina-1">
        <mxGraphModel dx="2288" dy="411" grid="1" gridSize="10" guides="1" tooltips="1" connect="1" arrows="1" fold="1" page="1" pageScale="1" pageWidth="1654" pageHeight="2336" math="0" shadow="0">
            <root>
                <mxCell id="0"/>
                <mxCell id="1" parent="0"/>
                <mxCell id="5" value="" style="edgeStyle=none;html=1;" edge="1" parent="1" source="3" target="4">
                    <mxGeometry relative="1" as="geometry"/>
                </mxCell>
                <mxCell id="3" value="INICIO" style="ellipse;whiteSpace=wrap;html=1;fillColor=#60a917;fontColor=#ffffff;strokeColor=#2D7600;" parent="1" vertex="1">
                    <mxGeometry x="260" y="60" width="120" height="60" as="geometry"/>
                </mxCell>
                <mxCell id="7" value="" style="edgeStyle=none;html=1;" edge="1" parent="1" source="4" target="6">
                    <mxGeometry relative="1" as="geometry"/>
                </mxCell>
                <mxCell id="4" value="X,Y" style="shape=parallelogram;perimeter=parallelogramPerimeter;whiteSpace=wrap;html=1;fixedSize=1;fillColor=#1ba1e2;fontColor=#ffffff;strokeColor=#006EAF;" vertex="1" parent="1">
                    <mxGeometry x="260" y="160" width="120" height="60" as="geometry"/>
                </mxCell>
                <mxCell id="9" value="" style="edgeStyle=none;html=1;" edge="1" parent="1" source="6" target="8">
                    <mxGeometry relative="1" as="geometry"/>
                </mxCell>
                <mxCell id="6" value="Z = choice&lt;br&gt;( nombres a elegir)" style="whiteSpace=wrap;html=1;fillColor=#6a00ff;fontColor=#ffffff;strokeColor=#3700CC;" vertex="1" parent="1">
                    <mxGeometry x="260" y="270" width="120" height="60" as="geometry"/>
                </mxCell>
                <mxCell id="8" value="X , Y == Z" style="rhombus;whiteSpace=wrap;html=1;fillColor=#d80073;fontColor=#ffffff;strokeColor=#A50040;" vertex="1" parent="1">
                    <mxGeometry x="280" y="390" width="80" height="80" as="geometry"/>
                </mxCell>
                <mxCell id="10" value="" style="shape=partialRectangle;whiteSpace=wrap;html=1;bottom=0;right=0;fillColor=none;direction=south;" vertex="1" parent="1">
                    <mxGeometry x="360" y="430" width="120" height="30" as="geometry"/>
                </mxCell>
                <mxCell id="12" value="X == Z" style="rhombus;whiteSpace=wrap;html=1;fillColor=#76608a;fontColor=#ffffff;strokeColor=#432D57;" vertex="1" parent="1">
                    <mxGeometry x="120" y="460" width="80" height="80" as="geometry"/>
                </mxCell>
                <mxCell id="13" value="" style="shape=partialRectangle;whiteSpace=wrap;html=1;bottom=0;right=0;fillColor=none;" vertex="1" parent="1">
                    <mxGeometry x="160" y="430" width="120" height="30" as="geometry"/>
                </mxCell>
                <mxCell id="14" value="" style="shape=partialRectangle;whiteSpace=wrap;html=1;bottom=0;right=0;fillColor=none;direction=south;" vertex="1" parent="1">
                    <mxGeometry x="200" y="500" width="80" height="30" as="geometry"/>
                </mxCell>
                <mxCell id="15" value="Adivinaron los dos jugadores" style="shape=document;whiteSpace=wrap;html=1;boundedLbl=1;fillColor=#a20025;fontColor=#ffffff;strokeColor=#6F0000;" vertex="1" parent="1">
                    <mxGeometry x="450" y="455" width="110" height="70" as="geometry"/>
                </mxCell>
                <mxCell id="16" value="solo adivino el jugador uno" style="shape=document;whiteSpace=wrap;html=1;boundedLbl=1;fillColor=#f0a30a;fontColor=#000000;strokeColor=#BD7000;" vertex="1" parent="1">
                    <mxGeometry x="240" y="530" width="100" height="50" as="geometry"/>
                </mxCell>
                <mxCell id="18" value="" style="shape=partialRectangle;whiteSpace=wrap;html=1;bottom=0;right=0;fillColor=none;" vertex="1" parent="1">
                    <mxGeometry x="20" y="500" width="100" height="20" as="geometry"/>
                </mxCell>
                <mxCell id="20" value="Y == Z" style="rhombus;whiteSpace=wrap;html=1;fillColor=#a0522d;fontColor=#ffffff;strokeColor=#6D1F00;" vertex="1" parent="1">
                    <mxGeometry x="-20" y="520" width="80" height="80" as="geometry"/>
                </mxCell>
                <mxCell id="21" value="" style="shape=partialRectangle;whiteSpace=wrap;html=1;bottom=0;right=0;fillColor=none;direction=south;" vertex="1" parent="1">
                    <mxGeometry x="60" y="560" width="100" height="40" as="geometry"/>
                </mxCell>
                <mxCell id="23" value="solo adivino el jugador dos" style="shape=document;whiteSpace=wrap;html=1;boundedLbl=1;fillColor=#6d8764;fontColor=#ffffff;strokeColor=#3A5431;" vertex="1" parent="1">
                    <mxGeometry x="120" y="600" width="100" height="50" as="geometry"/>
                </mxCell>
                <mxCell id="24" value="" style="shape=partialRectangle;whiteSpace=wrap;html=1;bottom=0;right=0;fillColor=none;" vertex="1" parent="1">
                    <mxGeometry x="-140" y="560" width="120" height="40" as="geometry"/>
                </mxCell>
                <mxCell id="27" value="ninguno de los dos jugasores adivino, el nombre a elegir era z" style="shape=document;whiteSpace=wrap;html=1;boundedLbl=1;fillColor=#bac8d3;strokeColor=#23445d;" vertex="1" parent="1">
                    <mxGeometry x="-200" y="600" width="140" height="80" as="geometry"/>
                </mxCell>
                <mxCell id="37" value="" style="edgeStyle=none;html=1;" edge="1" parent="1" source="28" target="36">
                    <mxGeometry relative="1" as="geometry"/>
                </mxCell>
                <mxCell id="28" value="" style="shape=partialRectangle;whiteSpace=wrap;html=1;bottom=1;right=1;left=1;top=0;fillColor=none;routingCenterX=-0.5;" vertex="1" parent="1">
                    <mxGeometry x="-160" y="680" width="640" height="80" as="geometry"/>
                </mxCell>
                <mxCell id="32" value="" style="shape=partialRectangle;whiteSpace=wrap;html=1;bottom=0;right=0;fillColor=none;direction=west;" vertex="1" parent="1">
                    <mxGeometry x="360" y="525" width="120" height="235" as="geometry"/>
                </mxCell>
                <mxCell id="33" value="" style="shape=partialRectangle;whiteSpace=wrap;html=1;bottom=0;right=0;fillColor=none;direction=west;" vertex="1" parent="1">
                    <mxGeometry x="190" y="570" width="120" height="190" as="geometry"/>
                </mxCell>
                <mxCell id="35" value="" style="shape=partialRectangle;whiteSpace=wrap;html=1;bottom=0;right=0;fillColor=none;direction=west;" vertex="1" parent="1">
                    <mxGeometry x="40" y="650" width="120" height="110" as="geometry"/>
                </mxCell>
                <mxCell id="36" value="FIN" style="ellipse;whiteSpace=wrap;html=1;fillColor=#fa6800;fontColor=#000000;strokeColor=#C73500;" vertex="1" parent="1">
                    <mxGeometry x="100" y="810" width="120" height="60" as="geometry"/>
                </mxCell>
            </root>
        </mxGraphModel>
    </diagram>
</mxfile>